# xmcd
#
# Track frame offsets:
#	150
#	860
#	55920
#	70290
#	83325
#	95025
#	106655
#	121195
#	132795
#	144507
#	157137
#	171667
#	183047
#	192822
#	206632
#	222247
#	222907
#	224037
#	225017
#	225562
#	226112
#	226702
#	227982
#	228952
#	264114
#	286411
#
# Disc length: 4421
#
# Revision: 2
# Processed by: cddbd v1.5.1PL0 Copyright (c) Steve Scherf et al.
# Submitted via: ExactAudioCopy v0.95a5
# Normalized: r0:TDELIM( - );r1:TSWAP
#
DISCID=5811431a
DTITLE=Various Artist - Duane Allman:  The Sessions  [CD2]
DYEAR=2004
DGENRE=Southern Rock
TTITLE0=Boz Scaggs - Loan Me A Dime (intro)
TTITLE1=Boz Scaggs - Loan Me A Dime (continued)
TTITLE2=Aretha Franklin - It Ain't Fair
TTITLE3=Aretha Franklin - The Weight
TTITLE4=John Hammond - Shake For Me
TTITLE5=John Hammond - Cryin' For My Baby
TTITLE6=John Hammond - I'm Leavin' You
TTITLE7=John Hammond - You'll Be Mine
TTITLE8=Aretha Franklin - When The Battle Is Over
TTITLE9=Ronnie Hawkins - Sick and Tired
TTITLE10=Ronnie Hawkins - Drinkin' Wine Spo-Dee-O-Dee
TTITLE11=Ronnie Hawkins - Red Rooster
TTITLE12=Ronnie Hawkins - Ooby Dooby
TTITLE13=Ronnie Hawkins - Patricia
TTITLE14=Ronnie Hawkins - Odessa
TTITLE15=Herbie Mann - Spirit In The Dark (intro)
TTITLE16=Herbie Mann - Spirit In The Dark (intro continued #1)
TTITLE17=Herbie Mann - Spirit In The Dark (intro continued #2)
TTITLE18=Herbie Mann - Spirit In The Dark (intro continued #3)
TTITLE19=Herbie Mann - Spirit In The Dark (intro continued #4)
TTITLE20=Herbie Mann - Spirit In The Dark (intro continued #5)
TTITLE21=Herbie Mann - Spirit In The Dark (intro continued #6)
TTITLE22=Herbie Mann - Spirit In The Dark (intro continued #7)
TTITLE23=Herbie Mann - Spirit In The Dark (continued)
TTITLE24=Herbie Mann - What'd I Say
TTITLE25=Herbie Mann - Push Push
EXTD=
EXTT0=
EXTT1=
EXTT2=
EXTT3=
EXTT4=
EXTT5=
EXTT6=
EXTT7=
EXTT8=
EXTT9=
EXTT10=
EXTT11=
EXTT12=
EXTT13=
EXTT14=
EXTT15=
EXTT16=
EXTT17=
EXTT18=
EXTT19=
EXTT20=
EXTT21=
EXTT22=
EXTT23=
EXTT24=
EXTT25=
PLAYORDER=
